# xmcd CD database file
#
# Track frame offsets:
#	150
#	24305
#	43410
#	60937
#
# Disc length: 1133 seconds
#
# Revision: 0
# Processed by: cddbd v1.5PL3 Copyright (c) Steve Scherf et al.
# Submitted via: CDex 1.51
#
DISCID=2a046b04
DTITLE=久保田利伸 - Our Christmas
DYEAR=2004
DGENRE=Vocal
TTITLE0=Our Christmas
TTITLE1=La vie son Musique
TTITLE2=FUNKY DOGS
TTITLE3=Our Christmas (surrounded by TK/karaoke)
EXTD=YEAR: 2004
EXTT0=
EXTT1=
EXTT2=
EXTT3=
PLAYORDER=
